<svg fill="none" xmlns="http://www.w3.org/2000/svg" viewBox="0 0 100 25" data-v-a28bd7ae=""><path d="M18.6802 17.1185c-1.3214-.5806-3.9843-3.8842-4.8052-5.1255h.921c1.5217 0 2.8031-1.1413 2.9632-2.64288 0-.08009 0-.14016.02-.20022v-.14015c0-1.6618-1.3614-2.98323-2.9832-2.98323H5.30574C2.38258 6.02652 0 3.64394 0 .720781 0 .320348.320347 0 .700758 0H14.796c4.4048 0 8.9897 3.52381 8.9897 8.98972 0 3.60388-2.1022 6.68728-5.1055 8.12878z" fill="url(#paint0_linear)"></path><path d="M10.3507 17.0384v4.5649c0 1.3415-1.10117 2.4427-2.44262 2.4427H5.04499c-.40043 0-.72077-.3204-.72077-.7008V13.014c.02002-3.58384 3.9843 1.2814 6.02648 4.0244z" fill="url(#paint1_linear)"></path><path d="M13.8545 11.993l-.901-.9611c-.9209-.981-2.7629-1.7819-4.10439-1.7819H6.76685c-1.34145 0-2.44263 1.1012-2.44263 2.4426v1.5017c0-.6607.18018-1.0812.46048-1.2214.32035-.1801.78085 0 1.30141.5406l.58063.6207 3.68396 3.9243 5.526 5.8663c.6807.7208 1.6218 1.1212 2.6028 1.1212h4.625c.3604 0 .6808-.2202.8209-.5406.1402-.3403.0801-.7208-.1602-.981l-5.0855-5.4059-4.8252-5.1255z" fill="url(#paint2_linear)"></path><path d="M37.2 17.4229v-4.8h2.2l3.6 4.8h3.76l-3.92-5.1C44.68 11.643 46 9.88295 46 7.82295c0-2.66-2.18-4.8-4.84-4.8H34V17.4229h3.2zm0-11.51995H41c.88 0 1.8.86 1.8 1.92s-.92 1.92-1.8 1.92h-3.8v-3.84zM46.8695 6.62295l4.44 9.52005-2.2 4.8799h3.34l6.56-14.39995h-3.26l-2.82 6.21995-2.8-6.21995h-3.26zM60.0533 3.02295v8.99995c0 3.16 2.28 5.72 5.6 5.72h.4v-2.72c-1.66 0-3-1.34-3-3V9.18295h3v-2.56h-3v-3.6h-3zM67.9453 17.4229h3v-5.42c0-1.64.94-2.97995 2.6-2.97995 1.66 0 2.6 1.33995 2.6 2.99995v5.4h3v-5.4c0-3.15995-2.28-5.71995-5.6-5.71995-1 0-1.9.36-2.6.96v-4.24h-3V17.4229zM80.9508 12.0229v5.4h3v-5.4c0-1.66.74-2.99995 2.4-2.99995s2.4 1.33995 2.4 2.99995v5.4h3v-5.4c0-1.66.74-2.99995 2.4-2.99995s2.4 1.33995 2.4 2.99995v5.4h3v-5.4c0-3.15995-2.08-5.71995-5.4-5.71995-1.56 0-2.96.7-3.9 1.82-.94-1.12-2.34-1.82-3.9-1.82-3.32 0-5.4 2.56-5.4 5.71995z" fill="#fff"></path><defs><linearGradient id="paint0_linear" x1="9.31756" y1="13.1776" x2="12.6465" y2="3.29046" gradientUnits="userSpaceOnUse"><stop offset=".00189592" stop-color="#fff" stop-opacity=".5"></stop><stop offset=".5" stop-color="#fff"></stop><stop offset="1" stop-color="#fff" stop-opacity=".9"></stop></linearGradient><linearGradient id="paint1_linear" x1="8.89866" y1="15.5138" x2="3.07292" y2="22.4382" gradientUnits="userSpaceOnUse"><stop offset=".00189592" stop-color="#fff" stop-opacity=".5"></stop><stop offset=".5" stop-color="#fff"></stop><stop offset="1" stop-color="#fff" stop-opacity=".9"></stop></linearGradient><linearGradient id="paint2_linear" x1="23.2226" y1="24.4321" x2="6.22241" y2="10.0508" gradientUnits="userSpaceOnUse"><stop offset=".00189592" stop-color="#fff" stop-opacity=".5"></stop><stop offset=".5" stop-color="#fff"></stop><stop offset="1" stop-color="#fff" stop-opacity=".9"></stop></linearGradient></defs></svg>
